# xmcd CD database file
#
# Track frame offsets:
#	150
#	26295
#	44755
#	68227
#	88012
#	111022
#	128387
#	155725
#	176847
#	210922
#
# Disc length: 3013 seconds
#
# Revision: 0
# Processed by: cddbd v1.5.2PL0 Copyright (c) Steve Scherf et al.
# Submitted via: CDex 1.70beta2
#
DISCID=800bc30a
DTITLE=Peter Zak - Purple Refrain
DYEAR=1991
DGENRE=Jazz
TTITLE0=To You With Love
TTITLE1=Without You
TTITLE2=After Times
TTITLE3=Just Another Day
TTITLE4=The Last Love Song
TTITLE5=At Thirteen
TTITLE6=Vanishing
TTITLE7=In A Deserted Town
TTITLE8=When Will I Forget
TTITLE9=Purple Refrain
EXTD=YEAR: 1991
EXTT0=
EXTT1=
EXTT2=
EXTT3=
EXTT4=
EXTT5=
EXTT6=
EXTT7=
EXTT8=
EXTT9=
PLAYORDER=
